<svg version="1.1" id="Layer_1" xmlns="http://www.w3.org/2000/svg" xmlns:xlink="http://www.w3.org/1999/xlink" x="0px" y="0px"
	 width="100%" viewBox="0 0 72 72" enable-background="new 0 0 72 72" xml:space="preserve">
<path fill="#FEFEFC" opacity="1.000000" stroke="none" 
	d="
M49.000072,73.000000 
	C32.666721,73.000000 16.833387,73.000000 1.000040,73.000000 
	C1.000027,49.000019 1.000027,25.000036 1.000013,1.000040 
	C24.999983,1.000027 48.999966,1.000027 72.999954,1.000013 
	C72.999969,24.999983 72.999969,48.999966 72.999985,72.999969 
	C65.166695,73.000000 57.333393,73.000000 49.000072,73.000000 
M41.936871,44.489971 
	C41.741543,43.919617 41.546215,43.349262 41.259937,42.374737 
	C41.259937,42.374737 41.054737,42.014843 41.154598,41.343441 
	C41.082714,40.899696 41.010834,40.455952 41.077358,39.379349 
	C41.106327,38.949200 41.135296,38.519051 41.662663,37.769680 
	C42.191933,36.979439 42.721203,36.189194 43.713379,34.782978 
	C43.671467,33.544636 43.629551,32.306297 43.387024,30.405312 
	C39.746990,27.873924 36.131298,25.858370 32.321968,31.407307 
	C32.274704,32.613251 32.227440,33.819191 32.222408,35.634277 
	C33.123871,36.435726 34.025330,37.237179 35.038479,38.697575 
	C35.101856,39.138203 35.165234,39.578827 35.045269,40.877945 
	C35.617405,43.345364 32.867794,48.010410 39.624554,46.912586 
	C40.056988,46.854275 40.489422,46.795959 41.494160,46.706352 
	C41.600109,46.171734 41.706059,45.637119 41.936871,44.489971 
M59.991684,12.985562 
	C59.991684,12.985562 59.928928,13.034458 60.036240,12.307503 
	C59.733078,11.203192 59.429916,10.098880 59.003654,8.365150 
	C58.534115,8.264480 57.774433,7.932862 57.641376,8.100024 
	C56.661835,9.330647 55.807457,10.660897 54.455444,12.100011 
	C54.163933,12.280880 53.993107,12.541004 53.383579,12.981406 
	C53.224525,13.642063 53.065475,14.302721 52.290749,15.255118 
	C51.054707,17.553036 49.209732,19.765602 48.870041,22.189154 
	C48.725876,23.217670 51.821796,25.815228 53.298405,25.706505 
	C55.794735,25.522701 58.735252,24.294983 60.456375,22.510317 
	C62.457272,20.435545 63.346565,17.288748 64.857956,14.334220 
	C63.565907,13.994641 62.334263,13.670938 60.609852,13.079268 
	C60.428173,13.037591 60.246494,12.995914 59.991684,12.985562 
M8.480467,25.082207 
	C8.367164,25.380667 8.253860,25.679125 8.010771,26.797153 
	C6.135613,33.174911 5.950386,39.272026 7.713482,46.009239 
	C10.078170,55.045277 15.546542,61.975590 22.891647,65.496811 
	C36.675701,72.104836 48.417538,70.297668 59.598400,59.681793 
	C62.290310,57.125908 63.728226,53.249294 66.165802,49.321922 
	C66.804398,46.563747 67.443001,43.805569 68.748871,40.565071 
	C68.595490,36.541546 70.869743,31.699154 64.328636,29.462280 
	C63.327629,30.316746 62.326622,31.171213 61.082020,32.901340 
	C61.107933,35.936073 61.133850,38.970810 60.998840,42.741497 
	C56.831161,54.837833 48.595001,62.357967 34.938637,61.092945 
	C26.008715,60.265739 16.779215,53.030956 14.831063,43.484192 
	C14.652455,43.170513 14.383888,42.992672 14.005609,43.003269 
	C14.005609,43.003269 14.050545,42.969437 14.004652,42.049812 
	C14.043757,38.057041 14.082864,34.064270 14.703133,29.705210 
	C18.001402,22.930887 22.522448,17.436884 30.767042,14.975792 
	C32.178856,14.599654 33.590672,14.223516 35.888550,13.973037 
	C39.303207,13.353749 42.717869,12.734462 46.626175,11.709421 
	C46.450764,10.765989 46.275349,9.822557 45.792217,8.193295 
	C40.845676,7.755404 35.899136,7.317513 30.155153,6.972980 
	C26.316401,7.766648 22.327419,8.252300 19.219225,12.020661 
	C16.467041,15.315374 13.714859,18.610086 10.372173,22.183687 
	C9.892610,23.108696 9.413046,24.033705 8.994088,24.995560 
	C8.994088,24.995560 8.968237,24.929510 8.480467,25.082207 
z"/>
<path fill="#F4944F" opacity="1.000000" stroke="none" 
	d="
M14.829315,43.982391 
	C16.779215,53.030956 26.008715,60.265739 34.938637,61.092945 
	C48.595001,62.357967 56.831161,54.837833 61.385380,42.371746 
	C62.180157,42.000793 62.588398,41.999596 62.949265,42.394310 
	C62.660393,45.656445 59.169003,49.806801 65.742828,49.980061 
	C63.728226,53.249294 62.290310,57.125908 59.598400,59.681793 
	C48.417538,70.297668 36.675701,72.104836 22.891647,65.496811 
	C15.546542,61.975590 10.078170,55.045277 7.713482,46.009239 
	C5.950386,39.272026 6.135613,33.174911 8.271626,26.264410 
	C8.771330,25.515142 8.916581,25.247757 8.968237,24.929510 
	C8.968237,24.929510 8.994088,24.995560 9.308164,24.993782 
	C10.080917,24.993425 10.539596,24.994844 11.001223,25.249615 
	C11.006433,25.671865 11.008692,25.840763 11.010105,26.436794 
	C11.340938,31.134832 11.548172,35.421486 12.085540,39.666348 
	C12.233055,40.831623 13.368460,41.871834 14.050545,42.969437 
	C14.050545,42.969437 14.005609,43.003269 14.087763,43.191780 
	C14.323078,43.653965 14.542877,43.854668 14.829315,43.982391 
z"/>
<path fill="#F39452" opacity="1.000000" stroke="none" 
	d="
M11.010950,26.009659 
	C11.008692,25.840763 11.006433,25.671865 11.002178,24.863647 
	C10.987680,23.451153 10.975179,22.677977 10.962676,21.904800 
	C13.714859,18.610086 16.467041,15.315374 20.017591,12.004686 
	C23.882690,13.027748 28.477646,9.495365 30.028635,15.068500 
	C22.522448,17.436884 18.001402,22.930887 14.130766,29.671329 
	C12.709249,28.428186 11.860100,27.218924 11.010950,26.009659 
z"/>
<path fill="#99CA82" opacity="1.000000" stroke="none" 
	d="
M61.102615,13.347235 
	C62.334263,13.670938 63.565907,13.994641 64.857956,14.334220 
	C63.346565,17.288748 62.457272,20.435545 60.456375,22.510317 
	C58.735252,24.294983 55.794735,25.522701 53.298405,25.706505 
	C51.821796,25.815228 48.725876,23.217670 48.870041,22.189154 
	C49.209732,19.765602 51.054707,17.553036 52.875809,15.115537 
	C53.645557,14.967656 53.830242,14.959357 54.388893,14.963653 
	C56.450516,14.649210 58.138168,14.322174 60.062645,13.934025 
	C60.621662,13.780868 60.889381,13.605642 61.102615,13.347235 
z"/>
<path fill="#F5944E" opacity="1.000000" stroke="none" 
	d="
M30.952597,6.879622 
	C35.899136,7.317513 40.845676,7.755404 45.918388,8.940962 
	C46.073879,10.497477 46.103203,11.306326 46.132526,12.115175 
	C42.717869,12.734462 39.303207,13.353749 35.443722,13.529163 
	C33.650127,11.016734 32.301361,8.948177 30.952597,6.879622 
z"/>
<path fill="#F99248" opacity="1.000000" stroke="none" 
	d="
M32.848751,30.902603 
	C36.131298,25.858370 39.746990,27.873924 43.297951,31.045921 
	C43.222736,32.924004 43.236603,34.161476 43.250469,35.398949 
	C42.721203,36.189194 42.191933,36.979439 41.073448,37.776817 
	C38.631752,37.868847 36.779274,37.953739 34.926792,38.038628 
	C34.025330,37.237179 33.123871,36.435726 32.456043,35.074173 
	C32.742702,33.310249 32.795727,32.106426 32.848751,30.902603 
z"/>
<path fill="#F09454" opacity="1.000000" stroke="none" 
	d="
M62.996635,41.998398 
	C62.588398,41.999596 62.180157,42.000793 61.465843,42.003769 
	C61.133850,38.970810 61.107933,35.936073 61.525803,32.412987 
	C62.995140,31.145830 64.020691,30.367027 65.046249,29.588226 
	C70.869743,31.699154 68.595490,36.541546 68.138336,40.598251 
	C66.565941,39.548061 65.604088,38.464699 64.642227,37.381332 
	C64.093697,38.920353 63.545166,40.459373 62.996635,41.998398 
z"/>
<path fill="#EA9750" opacity="1.000000" stroke="none" 
	d="
M30.553875,6.926301 
	C32.301361,8.948177 33.650127,11.016734 35.000690,13.466333 
	C33.590672,14.223516 32.178856,14.599654 30.397839,15.022146 
	C28.477646,9.495365 23.882690,13.027748 20.364876,11.978331 
	C22.327419,8.252300 26.316401,7.766648 30.553875,6.926301 
z"/>
<path fill="#F79245" opacity="1.000000" stroke="none" 
	d="
M62.949261,42.394310 
	C63.545166,40.459373 64.093697,38.920353 64.642227,37.381332 
	C65.604088,38.464699 66.565941,39.548061 67.804703,40.839409 
	C67.443001,43.805569 66.804398,46.563747 65.954315,49.650993 
	C59.169003,49.806801 62.660393,45.656445 62.949261,42.394310 
z"/>
<path fill="#ED9657" opacity="1.000000" stroke="none" 
	d="
M11.010105,26.436794 
	C11.860100,27.218924 12.709249,28.428186 13.840184,29.854475 
	C14.082864,34.064270 14.043757,38.057041 14.027598,42.509624 
	C13.368460,41.871834 12.233055,40.831623 12.085540,39.666348 
	C11.548172,35.421486 11.340938,31.134832 11.010105,26.436794 
z"/>
<path fill="#FA904C" opacity="1.000000" stroke="none" 
	d="
M40.921856,46.737644 
	C40.489422,46.795959 40.056988,46.854275 39.040462,46.624100 
	C37.651997,44.562458 36.847622,42.789303 36.438881,41.011402 
	C37.889641,41.005268 38.944763,41.003880 40.115089,41.227821 
	C40.505108,41.640381 40.779922,41.827610 41.054737,42.014843 
	C41.054737,42.014843 41.259937,42.374737 41.175568,42.941978 
	C41.049545,44.021133 41.007896,44.533043 40.960732,45.326996 
	C40.944099,45.985245 40.932980,46.361443 40.921856,46.737644 
z"/>
<path fill="#F59159" opacity="1.000000" stroke="none" 
	d="
M39.999886,41.002487 
	C38.944763,41.003880 37.889641,41.005268 36.349266,40.809628 
	C35.713074,40.349670 35.501270,40.151958 35.228611,40.019455 
	C35.165234,39.578827 35.101856,39.138203 34.982635,38.368103 
	C36.779274,37.953739 38.631752,37.868847 40.824249,37.936428 
	C41.135296,38.519051 41.106327,38.949200 40.800106,39.805855 
	C40.267982,40.434357 40.093658,40.691067 39.999886,41.002487 
z"/>
<path fill="#5D955F" opacity="1.000000" stroke="none" 
	d="
M59.825821,13.995138 
	C58.138168,14.322174 56.450516,14.649210 54.376144,14.619080 
	C53.973942,13.801403 53.958458,13.340893 53.942974,12.880383 
	C53.993107,12.541004 54.163933,12.280880 55.102554,12.043056 
	C56.864822,11.987142 57.979980,11.988181 59.182106,12.202373 
	C59.410648,12.705373 59.630600,12.911684 59.928928,13.034458 
	C59.928928,13.034458 59.991684,12.985562 59.946320,13.225050 
	C59.875912,13.641405 59.850864,13.818272 59.825821,13.995138 
z"/>
<path fill="#639575" opacity="1.000000" stroke="none" 
	d="
M59.095139,11.989220 
	C57.979980,11.988181 56.864822,11.987142 55.331665,11.972940 
	C55.807457,10.660897 56.661835,9.330647 57.641376,8.100024 
	C57.774433,7.932862 58.534115,8.264480 59.032375,9.051432 
	C59.072441,10.488215 59.083790,11.238717 59.095139,11.989220 
z"/>
<path fill="#E99660" opacity="1.000000" stroke="none" 
	d="
M35.136940,40.448700 
	C35.501270,40.151958 35.713074,40.349670 35.953629,40.814369 
	C36.847622,42.789303 37.651997,44.562458 38.715248,46.576042 
	C32.867794,48.010410 35.617405,43.345364 35.136940,40.448700 
z"/>
<path fill="#ED9657" opacity="1.000000" stroke="none" 
	d="
M10.667425,22.044243 
	C10.975179,22.677977 10.987680,23.451153 10.999228,24.610294 
	C10.539596,24.994844 10.080917,24.993425 9.277861,24.975361 
	C9.413046,24.033705 9.892610,23.108696 10.667425,22.044243 
z"/>
<path fill="#DC9B6A" opacity="1.000000" stroke="none" 
	d="
M64.687439,29.525253 
	C64.020691,30.367027 62.995140,31.145830 61.647602,31.975157 
	C62.326622,31.171213 63.327629,30.316746 64.687439,29.525253 
z"/>
<path fill="#99CA82" opacity="1.000000" stroke="none" 
	d="
M59.182106,12.202372 
	C59.083790,11.238717 59.072441,10.488215 59.093925,9.366140 
	C59.429916,10.098880 59.733078,11.203192 59.982582,12.670980 
	C59.630600,12.911684 59.410648,12.705373 59.182106,12.202372 
z"/>
<path fill="#DDAE8C" opacity="1.000000" stroke="none" 
	d="
M32.585358,31.154955 
	C32.795727,32.106426 32.742702,33.310249 32.434929,34.769604 
	C32.227440,33.819191 32.274704,32.613251 32.585358,31.154955 
z"/>
<path fill="#D6A272" opacity="1.000000" stroke="none" 
	d="
M43.481926,35.090965 
	C43.236603,34.161476 43.222736,32.924004 43.398254,31.377243 
	C43.629551,32.306297 43.671467,33.544636 43.481926,35.090965 
z"/>
<path fill="#E6B390" opacity="1.000000" stroke="none" 
	d="
M46.379349,11.912298 
	C46.103203,11.306326 46.073879,10.497477 46.072247,9.283876 
	C46.275349,9.822557 46.450764,10.765989 46.379349,11.912298 
z"/>
<path fill="#6EA076" opacity="1.000000" stroke="none" 
	d="
M53.663277,12.930895 
	C53.958458,13.340893 53.973942,13.801403 54.002174,14.606485 
	C53.830242,14.959357 53.645557,14.967656 53.183647,14.969667 
	C53.065475,14.302721 53.224525,13.642063 53.663277,12.930895 
z"/>
<path fill="#E99660" opacity="1.000000" stroke="none" 
	d="
M40.115089,41.227821 
	C40.093658,40.691067 40.267982,40.434357 40.730904,40.122284 
	C41.010834,40.455952 41.082714,40.899696 41.104668,41.679142 
	C40.779922,41.827610 40.505108,41.640381 40.115089,41.227821 
z"/>
<path fill="#E9BA9D" opacity="1.000000" stroke="none" 
	d="
M40.966244,45.044952 
	C41.007896,44.533043 41.049545,44.021133 41.221046,43.144066 
	C41.546215,43.349262 41.741543,43.919617 41.663765,44.772911 
	C41.390656,45.055851 40.966244,45.044952 40.966244,45.044952 
z"/>
<path fill="#E99660" opacity="1.000000" stroke="none" 
	d="
M40.960732,45.326996 
	C40.966244,45.044952 41.390656,45.055851 41.601334,45.079178 
	C41.706059,45.637119 41.600109,46.171734 41.208008,46.722000 
	C40.932980,46.361443 40.944099,45.985245 40.960732,45.326996 
z"/>
<path fill="#ED9657" opacity="1.000000" stroke="none" 
	d="
M8.724352,25.005859 
	C8.916581,25.247757 8.771330,25.515142 8.336519,25.854626 
	C8.253860,25.679125 8.367164,25.380667 8.724352,25.005859 
z"/>
<path fill="#C3E6B9" opacity="1.000000" stroke="none" 
	d="
M60.062645,13.934025 
	C59.850864,13.818272 59.875912,13.641405 59.982887,13.209387 
	C60.246494,12.995914 60.428173,13.037591 60.856232,13.213251 
	C60.889381,13.605642 60.621662,13.780868 60.062645,13.934025 
z"/>
<path fill="#ED9657" opacity="1.000000" stroke="none" 
	d="
M14.830189,43.733292 
	C14.542877,43.854668 14.323078,43.653965 14.097639,43.165474 
	C14.383888,42.992672 14.652455,43.170513 14.830189,43.733292 
z"/>
</svg>